<svg width="196" height="72" viewBox="0 0 196 72" fill="none" xmlns="http://www.w3.org/2000/svg">
<rect x="2.57086" y="2.06117" width="9.77141" height="48.857" rx="4.8857" fill="#D9D9D9"/>
<rect x="0.586029" y="6.90945" width="9.77141" height="25.7176" rx="4.8857" transform="rotate(-45 0.586029 6.90945)" fill="#0091DB"/>
<rect x="46.7897" y="20.4563" width="9.77141" height="22.9017" rx="4.8857" transform="rotate(45 46.7897 20.4563)" fill="#EC4899"/>
<rect x="2.57086" y="2.06117" width="9.77141" height="48.857" rx="4.8857" fill="#0091DB"/>
<rect x="46.8103" y="1.74998" width="9.77141" height="36.2218" rx="4.8857" transform="rotate(45 46.8103 1.74998)" fill="#22C55E"/>
<rect x="41.9618" y="41.1468" width="9.77141" height="9.77141" rx="4.8857" fill="#1D4ED8"/>
<path d="M66.5577 51.5045C64.6034 51.5045 62.825 51.1136 61.2225 50.3319C59.62 49.5502 58.3302 48.4949 57.353 47.166C56.3759 45.8371 55.8873 44.3323 55.8873 42.6516C55.8873 39.9547 56.9817 37.805 59.1705 36.2024C61.3593 34.5999 64.2125 33.5446 67.7302 33.0365L76.4659 31.8053V30.1051C76.4659 28.229 75.9187 26.7633 74.8243 25.708C73.769 24.6526 72.0297 24.125 69.6064 24.125C67.8475 24.125 66.4209 24.4768 65.3265 25.1803C64.2712 25.8838 63.5285 26.7828 63.0986 27.8772C62.8641 28.4635 62.4537 28.7566 61.8674 28.7566H59.2291C58.7992 28.7566 58.4669 28.6394 58.2324 28.4049C58.037 28.1313 57.9393 27.8186 57.9393 27.4668C57.9393 26.8805 58.1543 26.1574 58.5842 25.2976C59.0532 24.4377 59.7568 23.5973 60.6948 22.7765C61.6329 21.9557 62.825 21.2717 64.2712 20.7245C65.7564 20.1383 67.5544 19.8451 69.665 19.8451C72.0101 19.8451 73.9839 20.1578 75.5865 20.7832C77.189 21.3695 78.4397 22.1707 79.3387 23.1869C80.2767 24.2032 80.9412 25.3562 81.332 26.646C81.762 27.9358 81.977 29.2452 81.977 30.5741V49.5697C81.977 49.9606 81.8402 50.2928 81.5666 50.5664C81.332 50.8009 81.0194 50.9182 80.6285 50.9182H77.9316C77.5016 50.9182 77.1694 50.8009 76.9349 50.5664C76.7004 50.2928 76.5831 49.9606 76.5831 49.5697V47.0487C76.075 47.7523 75.391 48.4558 74.5311 49.1593C73.6713 49.8238 72.5964 50.3905 71.3066 50.8596C70.0168 51.2895 68.4338 51.5045 66.5577 51.5045ZM67.7889 47.1073C69.3914 47.1073 70.8571 46.7751 72.186 46.1107C73.5149 45.4071 74.5507 44.3323 75.2933 42.8861C76.075 41.4399 76.4659 39.6224 76.4659 37.4336V35.792L69.665 36.7887C66.8899 37.1796 64.7988 37.844 63.3917 38.7821C61.9847 39.6811 61.2811 40.8341 61.2811 42.2412C61.2811 43.3356 61.5938 44.2541 62.2192 44.9967C62.8836 45.7003 63.7044 46.2279 64.6816 46.5797C65.6978 46.9314 66.7336 47.1073 67.7889 47.1073Z" fill="#0091DB"/>
<path d="M91.7537 50.9182C91.3628 50.9182 91.0306 50.8009 90.757 50.5664C90.5225 50.2928 90.4052 49.9606 90.4052 49.5697V21.7799C90.4052 21.389 90.5225 21.0763 90.757 20.8418C91.0306 20.5682 91.3628 20.4314 91.7537 20.4314H94.5092C94.9001 20.4314 95.2128 20.5682 95.4473 20.8418C95.7209 21.0763 95.8577 21.389 95.8577 21.7799V24.3595C96.8739 23.0306 98.1442 21.9557 99.6685 21.1349C101.232 20.2751 103.225 19.8451 105.649 19.8451C108.189 19.8451 110.339 20.4119 112.098 21.5453C113.896 22.6397 115.244 24.1836 116.143 26.177C117.042 28.1313 117.492 30.4178 117.492 33.0365V49.5697C117.492 49.9606 117.374 50.2928 117.14 50.5664C116.905 50.8009 116.593 50.9182 116.202 50.9182H113.27C112.879 50.9182 112.547 50.8009 112.274 50.5664C112.039 50.2928 111.922 49.9606 111.922 49.5697V33.3297C111.922 30.5937 111.257 28.4635 109.929 26.9392C108.6 25.3757 106.645 24.594 104.066 24.594C101.642 24.594 99.6881 25.3757 98.2028 26.9392C96.7567 28.4635 96.0336 30.5937 96.0336 33.3297V49.5697C96.0336 49.9606 95.8968 50.2928 95.6232 50.5664C95.3887 50.8009 95.076 50.9182 94.6851 50.9182H91.7537Z" fill="#0091DB"/>
<path d="M138.272 51.5045C135.497 51.5045 133.093 50.9768 131.061 49.9215C129.067 48.8271 127.524 47.2832 126.429 45.2899C125.335 43.2574 124.749 40.8341 124.67 38.0199C124.631 37.4336 124.612 36.6519 124.612 35.6748C124.612 34.6977 124.631 33.9159 124.67 33.3297C124.749 30.5155 125.335 28.1117 126.429 26.1184C127.524 24.0859 129.067 22.542 131.061 21.4867C133.093 20.3923 135.497 19.8451 138.272 19.8451C140.539 19.8451 142.474 20.1578 144.076 20.7832C145.718 21.4085 147.066 22.2098 148.122 23.1869C149.177 24.1641 149.959 25.2194 150.467 26.3529C151.014 27.4864 151.307 28.5612 151.346 29.5774C151.385 29.9683 151.268 30.281 150.995 30.5155C150.721 30.75 150.389 30.8673 149.998 30.8673H147.184C146.793 30.8673 146.5 30.7891 146.304 30.6327C146.109 30.4373 145.913 30.1246 145.718 29.6947C145.014 27.7795 144.057 26.431 142.845 25.6493C141.634 24.8676 140.129 24.4768 138.331 24.4768C135.986 24.4768 134.07 25.1998 132.585 26.646C131.139 28.0922 130.357 30.4178 130.24 33.6228C130.201 35.0299 130.201 36.3979 130.24 37.7268C130.357 40.9709 131.139 43.316 132.585 44.7622C134.07 46.1693 135.986 46.8728 138.331 46.8728C140.129 46.8728 141.634 46.482 142.845 45.7003C144.057 44.9185 145.014 43.5701 145.718 41.6549C145.913 41.225 146.109 40.9318 146.304 40.7755C146.5 40.58 146.793 40.4823 147.184 40.4823H149.998C150.389 40.4823 150.721 40.5996 150.995 40.8341C151.268 41.0686 151.385 41.3813 151.346 41.7721C151.307 42.5929 151.131 43.4333 150.819 44.2932C150.506 45.1531 149.998 46.0325 149.294 46.9314C148.63 47.7913 147.79 48.573 146.773 49.2766C145.757 49.941 144.526 50.4882 143.08 50.9182C141.673 51.309 140.07 51.5045 138.272 51.5045Z" fill="#0091DB"/>
<path d="M166.81 51.5045C164.856 51.5045 163.077 51.1136 161.475 50.3319C159.872 49.5502 158.582 48.4949 157.605 47.166C156.628 45.8371 156.14 44.3323 156.14 42.6516C156.14 39.9547 157.234 37.805 159.423 36.2024C161.612 34.5999 164.465 33.5446 167.983 33.0365L176.718 31.8053V30.1051C176.718 28.229 176.171 26.7633 175.077 25.708C174.021 24.6526 172.282 24.125 169.859 24.125C168.1 24.125 166.673 24.4768 165.579 25.1803C164.523 25.8838 163.781 26.7828 163.351 27.8772C163.116 28.4635 162.706 28.7566 162.12 28.7566H159.481C159.052 28.7566 158.719 28.6394 158.485 28.4049C158.289 28.1313 158.192 27.8186 158.192 27.4668C158.192 26.8805 158.407 26.1574 158.837 25.2976C159.306 24.4377 160.009 23.5973 160.947 22.7765C161.885 21.9557 163.077 21.2717 164.523 20.7245C166.009 20.1383 167.807 19.8451 169.917 19.8451C172.262 19.8451 174.236 20.1578 175.839 20.7832C177.441 21.3695 178.692 22.1707 179.591 23.1869C180.529 24.2032 181.194 25.3562 181.584 26.646C182.014 27.9358 182.229 29.2452 182.229 30.5741V49.5697C182.229 49.9606 182.092 50.2928 181.819 50.5664C181.584 50.8009 181.272 50.9182 180.881 50.9182H178.184C177.754 50.9182 177.422 50.8009 177.187 50.5664C176.953 50.2928 176.835 49.9606 176.835 49.5697V47.0487C176.327 47.7523 175.643 48.4558 174.783 49.1593C173.924 49.8238 172.849 50.3905 171.559 50.8596C170.269 51.2895 168.686 51.5045 166.81 51.5045ZM168.041 47.1073C169.644 47.1073 171.109 46.7751 172.438 46.1107C173.767 45.4071 174.803 44.3323 175.546 42.8861C176.327 41.4399 176.718 39.6224 176.718 37.4336V35.792L169.917 36.7887C167.142 37.1796 165.051 37.844 163.644 38.7821C162.237 39.6811 161.533 40.8341 161.533 42.2412C161.533 43.3356 161.846 44.2541 162.471 44.9967C163.136 45.7003 163.957 46.2279 164.934 46.5797C165.95 46.9314 166.986 47.1073 168.041 47.1073Z" fill="#0091DB"/>
<path d="M188.996 20.6073C188.683 20.6073 188.429 20.49 188.234 20.2555C188.077 20.021 188.019 19.7279 188.058 19.3761L189.406 10.9922C189.484 10.5232 189.641 10.1323 189.875 9.81965C190.149 9.46788 190.54 9.29199 191.048 9.29199H194.976C195.25 9.29199 195.464 9.40925 195.621 9.64376C195.816 9.83919 195.914 10.0542 195.914 10.2887C195.914 10.6014 195.836 10.914 195.679 11.2267L192.631 19.2588C192.474 19.6497 192.259 19.9819 191.986 20.2555C191.751 20.49 191.38 20.6073 190.872 20.6073H188.996Z" fill="#0091DB"/>
<path d="M5.09614 69.8503C5.031 69.8503 4.97563 69.8307 4.93003 69.7917C4.89094 69.7461 4.8714 69.6907 4.8714 69.6255V63.2448C4.8714 63.1732 4.89094 63.1178 4.93003 63.0787C4.97563 63.0331 5.031 63.0103 5.09614 63.0103H5.58471C5.66288 63.0103 5.72151 63.0298 5.7606 63.0689C5.79968 63.108 5.82248 63.1406 5.829 63.1666L7.90053 67.1143L9.98184 63.1666C9.99487 63.1406 10.0177 63.108 10.0502 63.0689C10.0893 63.0298 10.148 63.0103 10.2261 63.0103H10.7049C10.7766 63.0103 10.832 63.0331 10.871 63.0787C10.9166 63.1178 10.9394 63.1732 10.9394 63.2448V69.6255C10.9394 69.6907 10.9166 69.7461 10.871 69.7917C10.832 69.8307 10.7766 69.8503 10.7049 69.8503H10.2261C10.161 69.8503 10.1056 69.8307 10.06 69.7917C10.0209 69.7461 10.0014 69.6907 10.0014 69.6255V64.818L8.36956 68.0035C8.34351 68.0686 8.30442 68.1208 8.25231 68.1598C8.20019 68.1924 8.13505 68.2087 8.05688 68.2087H7.75396C7.66928 68.2087 7.60088 68.1924 7.54876 68.1598C7.50316 68.1208 7.46408 68.0686 7.43151 68.0035L5.79968 64.818V69.6255C5.79968 69.6907 5.77688 69.7461 5.73128 69.7917C5.6922 69.8307 5.64008 69.8503 5.57494 69.8503H5.09614Z" fill="#0091DB"/>
<path d="M14.5836 69.948C14.0886 69.948 13.6749 69.8535 13.3427 69.6646C13.0104 69.4757 12.7564 69.2151 12.5805 68.8829C12.4046 68.5442 12.3069 68.1598 12.2874 67.7299C12.2808 67.6192 12.2776 67.4791 12.2776 67.3097C12.2776 67.1338 12.2808 66.9938 12.2874 66.8896C12.3069 66.4531 12.4046 66.0688 12.5805 65.7365C12.7629 65.4043 13.0202 65.1437 13.3524 64.9548C13.6847 64.7659 14.0951 64.6714 14.5836 64.6714C15.0722 64.6714 15.4826 64.7659 15.8148 64.9548C16.1471 65.1437 16.4011 65.4043 16.577 65.7365C16.7594 66.0688 16.8604 66.4531 16.8799 66.8896C16.8864 66.9938 16.8897 67.1338 16.8897 67.3097C16.8897 67.4791 16.8864 67.6192 16.8799 67.7299C16.8604 68.1598 16.7627 68.5442 16.5868 68.8829C16.4109 69.2151 16.1568 69.4757 15.8246 69.6646C15.4924 69.8535 15.0787 69.948 14.5836 69.948ZM14.5836 69.1956C14.9875 69.1956 15.31 69.0686 15.551 68.8145C15.792 68.554 15.9223 68.1761 15.9419 67.681C15.9484 67.5833 15.9516 67.4596 15.9516 67.3097C15.9516 67.1599 15.9484 67.0361 15.9419 66.9384C15.9223 66.4433 15.792 66.0688 15.551 65.8147C15.31 65.5541 14.9875 65.4238 14.5836 65.4238C14.1798 65.4238 13.854 65.5541 13.6065 65.8147C13.3655 66.0688 13.2384 66.4433 13.2254 66.9384C13.2189 67.0361 13.2156 67.1599 13.2156 67.3097C13.2156 67.4596 13.2189 67.5833 13.2254 67.681C13.2384 68.1761 13.3655 68.554 13.6065 68.8145C13.854 69.0686 14.1798 69.1956 14.5836 69.1956Z" fill="#0091DB"/>
<path d="M18.338 69.8503C18.2729 69.8503 18.2175 69.8307 18.1719 69.7917C18.1328 69.7461 18.1133 69.6907 18.1133 69.6255V64.9939C18.1133 64.9288 18.1328 64.8766 18.1719 64.8376C18.2175 64.792 18.2729 64.7692 18.338 64.7692H18.7973C18.8624 64.7692 18.9145 64.792 18.9536 64.8376C18.9992 64.8766 19.022 64.9288 19.022 64.9939V65.4238C19.1914 65.2024 19.4031 65.0232 19.6571 64.8864C19.9177 64.7431 20.2499 64.6714 20.6538 64.6714C21.0772 64.6714 21.4355 64.7659 21.7287 64.9548C22.0283 65.1372 22.2531 65.3945 22.4029 65.7268C22.5527 66.0525 22.6276 66.4336 22.6276 66.87V69.6255C22.6276 69.6907 22.6081 69.7461 22.569 69.7917C22.5299 69.8307 22.4778 69.8503 22.4127 69.8503H21.9241C21.859 69.8503 21.8036 69.8307 21.758 69.7917C21.7189 69.7461 21.6994 69.6907 21.6994 69.6255V66.9189C21.6994 66.4629 21.5886 66.1078 21.3671 65.8538C21.1457 65.5932 20.8199 65.4629 20.39 65.4629C19.9861 65.4629 19.6604 65.5932 19.4129 65.8538C19.1718 66.1078 19.0513 66.4629 19.0513 66.9189V69.6255C19.0513 69.6907 19.0285 69.7461 18.9829 69.7917C18.9438 69.8307 18.8917 69.8503 18.8266 69.8503H18.338Z" fill="#0091DB"/>
<path d="M24.2638 69.8503C24.1987 69.8503 24.1433 69.8307 24.0977 69.7917C24.0586 69.7461 24.0391 69.6907 24.0391 69.6255V64.9939C24.0391 64.9288 24.0586 64.8766 24.0977 64.8376C24.1433 64.792 24.1987 64.7692 24.2638 64.7692H24.7329C24.798 64.7692 24.8501 64.792 24.8892 64.8376C24.9283 64.8766 24.9478 64.9288 24.9478 64.9939V69.6255C24.9478 69.6907 24.9283 69.7461 24.8892 69.7917C24.8501 69.8307 24.798 69.8503 24.7329 69.8503H24.2638ZM24.1857 63.8213C24.1205 63.8213 24.0651 63.8018 24.0195 63.7627C23.9805 63.7171 23.9609 63.6617 23.9609 63.5966V63.0689C23.9609 63.0038 23.9805 62.9517 24.0195 62.9126C24.0651 62.867 24.1205 62.8442 24.1857 62.8442H24.8013C24.8664 62.8442 24.9185 62.867 24.9576 62.9126C25.0032 62.9517 25.026 63.0038 25.026 63.0689V63.5966C25.026 63.6617 25.0032 63.7171 24.9576 63.7627C24.9185 63.8018 24.8664 63.8213 24.8013 63.8213H24.1857Z" fill="#0091DB"/>
<path d="M28.3892 69.8503C28.0244 69.8503 27.728 69.7819 27.5 69.6451C27.272 69.5018 27.1059 69.3031 27.0016 69.049C26.8974 68.7885 26.8453 68.4823 26.8453 68.1305V65.5509H26.0831C26.018 65.5509 25.9626 65.5313 25.917 65.4922C25.8779 65.4466 25.8584 65.3913 25.8584 65.3261V64.9939C25.8584 64.9288 25.8779 64.8766 25.917 64.8376C25.9626 64.792 26.018 64.7692 26.0831 64.7692H26.8453V63.1373C26.8453 63.0722 26.8649 63.0201 26.9039 62.981C26.9495 62.9354 27.0049 62.9126 27.07 62.9126H27.5293C27.5944 62.9126 27.6466 62.9354 27.6856 62.981C27.7312 63.0201 27.754 63.0722 27.754 63.1373V64.7692H28.9657C29.0308 64.7692 29.083 64.792 29.122 64.8376C29.1676 64.8766 29.1904 64.9288 29.1904 64.9939V65.3261C29.1904 65.3913 29.1676 65.4466 29.122 65.4922C29.083 65.5313 29.0308 65.5509 28.9657 65.5509H27.754V68.0621C27.754 68.3683 27.8062 68.6093 27.9104 68.7852C28.0146 68.9611 28.2003 69.049 28.4674 69.049H29.0634C29.1286 69.049 29.1807 69.0718 29.2198 69.1174C29.2654 69.1565 29.2882 69.2086 29.2882 69.2738V69.6255C29.2882 69.6907 29.2654 69.7461 29.2198 69.7917C29.1807 69.8307 29.1286 69.8503 29.0634 69.8503H28.3892Z" fill="#0091DB"/>
<path d="M32.3039 69.948C31.8088 69.948 31.3951 69.8535 31.0629 69.6646C30.7307 69.4757 30.4766 69.2151 30.3007 68.8829C30.1248 68.5442 30.0271 68.1598 30.0076 67.7299C30.0011 67.6192 29.9978 67.4791 29.9978 67.3097C29.9978 67.1338 30.0011 66.9938 30.0076 66.8896C30.0271 66.4531 30.1248 66.0688 30.3007 65.7365C30.4831 65.4043 30.7404 65.1437 31.0727 64.9548C31.4049 64.7659 31.8153 64.6714 32.3039 64.6714C32.7924 64.6714 33.2028 64.7659 33.5351 64.9548C33.8673 65.1437 34.1213 65.4043 34.2972 65.7365C34.4796 66.0688 34.5806 66.4531 34.6001 66.8896C34.6067 66.9938 34.6099 67.1338 34.6099 67.3097C34.6099 67.4791 34.6067 67.6192 34.6001 67.7299C34.5806 68.1598 34.4829 68.5442 34.307 68.8829C34.1311 69.2151 33.8771 69.4757 33.5448 69.6646C33.2126 69.8535 32.7989 69.948 32.3039 69.948ZM32.3039 69.1956C32.7077 69.1956 33.0302 69.0686 33.2712 68.8145C33.5123 68.554 33.6425 68.1761 33.6621 67.681C33.6686 67.5833 33.6719 67.4596 33.6719 67.3097C33.6719 67.1599 33.6686 67.0361 33.6621 66.9384C33.6425 66.4433 33.5123 66.0688 33.2712 65.8147C33.0302 65.5541 32.7077 65.4238 32.3039 65.4238C31.9 65.4238 31.5743 65.5541 31.3267 65.8147C31.0857 66.0688 30.9587 66.4433 30.9456 66.9384C30.9391 67.0361 30.9359 67.1599 30.9359 67.3097C30.9359 67.4596 30.9391 67.5833 30.9456 67.681C30.9587 68.1761 31.0857 68.554 31.3267 68.8145C31.5743 69.0686 31.9 69.1956 32.3039 69.1956Z" fill="#0091DB"/>
<path d="M36.0582 69.8503C35.9931 69.8503 35.9377 69.8307 35.8921 69.7917C35.853 69.7461 35.8335 69.6907 35.8335 69.6255V65.0037C35.8335 64.9385 35.853 64.8832 35.8921 64.8376C35.9377 64.792 35.9931 64.7692 36.0582 64.7692H36.5077C36.5728 64.7692 36.6282 64.792 36.6738 64.8376C36.7194 64.8832 36.7422 64.9385 36.7422 65.0037V65.4336C36.8725 65.2121 37.0516 65.046 37.2796 64.9353C37.5076 64.8245 37.7812 64.7692 38.1004 64.7692H38.4913C38.5564 64.7692 38.6086 64.792 38.6476 64.8376C38.6867 64.8766 38.7063 64.9288 38.7063 64.9939V65.3945C38.7063 65.4597 38.6867 65.5118 38.6476 65.5509C38.6086 65.59 38.5564 65.6095 38.4913 65.6095H37.905C37.5532 65.6095 37.2764 65.7137 37.0744 65.9222C36.8725 66.1241 36.7715 66.401 36.7715 66.7528V69.6255C36.7715 69.6907 36.7487 69.7461 36.7031 69.7917C36.6575 69.8307 36.6022 69.8503 36.537 69.8503H36.0582Z" fill="#0091DB"/>
<path d="M39.7702 69.8503C39.7051 69.8503 39.6497 69.8307 39.6041 69.7917C39.565 69.7461 39.5455 69.6907 39.5455 69.6255V64.9939C39.5455 64.9288 39.565 64.8766 39.6041 64.8376C39.6497 64.792 39.7051 64.7692 39.7702 64.7692H40.2392C40.3044 64.7692 40.3565 64.792 40.3956 64.8376C40.4347 64.8766 40.4542 64.9288 40.4542 64.9939V69.6255C40.4542 69.6907 40.4347 69.7461 40.3956 69.7917C40.3565 69.8307 40.3044 69.8503 40.2392 69.8503H39.7702ZM39.692 63.8213C39.6269 63.8213 39.5715 63.8018 39.5259 63.7627C39.4868 63.7171 39.4673 63.6617 39.4673 63.5966V63.0689C39.4673 63.0038 39.4868 62.9517 39.5259 62.9126C39.5715 62.867 39.6269 62.8442 39.692 62.8442H40.3076C40.3728 62.8442 40.4249 62.867 40.464 62.9126C40.5096 62.9517 40.5324 63.0038 40.5324 63.0689V63.5966C40.5324 63.6617 40.5096 63.7171 40.464 63.7627C40.4249 63.8018 40.3728 63.8213 40.3076 63.8213H39.692Z" fill="#0091DB"/>
<path d="M42.2321 69.8503C42.167 69.8503 42.1116 69.8307 42.066 69.7917C42.0269 69.7461 42.0074 69.6907 42.0074 69.6255V64.9939C42.0074 64.9288 42.0269 64.8766 42.066 64.8376C42.1116 64.792 42.167 64.7692 42.2321 64.7692H42.6914C42.7565 64.7692 42.8087 64.792 42.8477 64.8376C42.8933 64.8766 42.9161 64.9288 42.9161 64.9939V65.4238C43.0855 65.2024 43.2972 65.0232 43.5513 64.8864C43.8119 64.7431 44.1441 64.6714 44.548 64.6714C44.9714 64.6714 45.3297 64.7659 45.6228 64.9548C45.9225 65.1372 46.1472 65.3945 46.297 65.7268C46.4469 66.0525 46.5218 66.4336 46.5218 66.87V69.6255C46.5218 69.6907 46.5023 69.7461 46.4632 69.7917C46.4241 69.8307 46.372 69.8503 46.3068 69.8503H45.8183C45.7531 69.8503 45.6977 69.8307 45.6521 69.7917C45.613 69.7461 45.5935 69.6907 45.5935 69.6255V66.9189C45.5935 66.4629 45.4828 66.1078 45.2613 65.8538C45.0398 65.5932 44.7141 65.4629 44.2841 65.4629C43.8803 65.4629 43.5545 65.5932 43.307 65.8538C43.066 66.1078 42.9455 66.4629 42.9455 66.9189V69.6255C42.9455 69.6907 42.9227 69.7461 42.8771 69.7917C42.838 69.8307 42.7859 69.8503 42.7207 69.8503H42.2321Z" fill="#0091DB"/>
<path d="M50.0145 72C49.5716 72 49.2068 71.9414 48.9201 71.8241C48.64 71.7069 48.4185 71.5635 48.2557 71.3942C48.0993 71.2313 47.9853 71.0652 47.9137 70.8958C47.8485 70.733 47.8127 70.6027 47.8062 70.505C47.7997 70.4398 47.8192 70.3845 47.8648 70.3389C47.9169 70.2933 47.9723 70.2705 48.0309 70.2705H48.5C48.5586 70.2705 48.6074 70.2835 48.6465 70.3095C48.6856 70.3356 48.7182 70.391 48.7443 70.4757C48.7833 70.5734 48.842 70.6809 48.9201 70.7981C48.9983 70.9219 49.1188 71.0261 49.2817 71.1108C49.4445 71.202 49.6725 71.2476 49.9657 71.2476C50.2718 71.2476 50.5292 71.2053 50.7376 71.1206C50.9461 71.0424 51.1024 70.8991 51.2066 70.6906C51.3174 70.4887 51.3728 70.2086 51.3728 69.8503V69.1858C51.2164 69.3878 51.0112 69.5571 50.7572 69.6939C50.5031 69.8242 50.1839 69.8894 49.7996 69.8894C49.4348 69.8894 49.1221 69.8275 48.8615 69.7037C48.6009 69.5734 48.386 69.4008 48.2166 69.1858C48.0537 68.9643 47.93 68.7136 47.8453 68.4334C47.7671 68.1533 47.7215 67.8602 47.7085 67.554C47.702 67.3716 47.702 67.1925 47.7085 67.0166C47.7215 66.7104 47.7671 66.4173 47.8453 66.1372C47.93 65.857 48.0537 65.6062 48.2166 65.3848C48.386 65.1633 48.6009 64.9906 48.8615 64.8669C49.1221 64.7366 49.4348 64.6714 49.7996 64.6714C50.1904 64.6714 50.5129 64.7464 50.7669 64.8962C51.0275 65.0395 51.2392 65.2154 51.4021 65.4238V65.0037C51.4021 64.9385 51.4216 64.8832 51.4607 64.8376C51.5063 64.792 51.5617 64.7692 51.6268 64.7692H52.0763C52.1414 64.7692 52.1968 64.792 52.2424 64.8376C52.288 64.8832 52.3108 64.9385 52.3108 65.0037V69.7428C52.3108 70.1793 52.2359 70.5669 52.0861 70.9056C51.9428 71.2443 51.7017 71.5114 51.363 71.7069C51.0308 71.9023 50.5813 72 50.0145 72ZM49.995 69.1077C50.3207 69.1077 50.5813 69.0328 50.7767 68.8829C50.9786 68.7331 51.1252 68.5442 51.2164 68.3162C51.3141 68.0882 51.3662 67.8569 51.3728 67.6224C51.3793 67.5312 51.3825 67.4205 51.3825 67.2902C51.3825 67.1534 51.3793 67.0394 51.3728 66.9482C51.3662 66.7137 51.3141 66.4824 51.2164 66.2544C51.1252 66.0264 50.9786 65.8375 50.7767 65.6877C50.5813 65.5378 50.3207 65.4629 49.995 65.4629C49.6693 65.4629 49.4087 65.5378 49.2133 65.6877C49.0178 65.831 48.8778 66.0232 48.7931 66.2642C48.7084 66.4987 48.6596 66.7528 48.6465 67.0264C48.64 67.1957 48.64 67.3684 48.6465 67.5442C48.6596 67.8178 48.7084 68.0752 48.7931 68.3162C48.8778 68.5507 49.0178 68.7429 49.2133 68.8927C49.4087 69.036 49.6693 69.1077 49.995 69.1077Z" fill="#0091DB"/>
<path d="M55.5689 69.8503C55.5168 69.8503 55.4712 69.8307 55.4321 69.7917C55.393 69.7526 55.3735 69.707 55.3735 69.6549C55.3735 69.6223 55.3767 69.5865 55.3832 69.5474L57.8065 63.2253C57.8326 63.1601 57.8684 63.108 57.914 63.0689C57.9596 63.0298 58.028 63.0103 58.1192 63.0103H58.7837C58.8684 63.0103 58.9335 63.0298 58.9791 63.0689C59.0312 63.108 59.0703 63.1601 59.0964 63.2253L61.5099 69.5474C61.5229 69.5865 61.5294 69.6223 61.5294 69.6549C61.5294 69.707 61.5099 69.7526 61.4708 69.7917C61.4317 69.8307 61.3861 69.8503 61.334 69.8503H60.8357C60.7575 69.8503 60.6989 69.8307 60.6598 69.7917C60.6272 69.7526 60.6044 69.7167 60.5914 69.6842L60.054 68.2966H56.8489L56.3115 69.6842C56.305 69.7167 56.2822 69.7526 56.2431 69.7917C56.204 69.8307 56.1454 69.8503 56.0672 69.8503H55.5689ZM57.1323 67.4563H59.7706L58.4515 63.9874L57.1323 67.4563Z" fill="#0091DB"/>
<path d="M62.6719 69.8503C62.6068 69.8503 62.5514 69.8307 62.5058 69.7917C62.4667 69.7461 62.4472 69.6907 62.4472 69.6255V64.9939C62.4472 64.9288 62.4667 64.8766 62.5058 64.8376C62.5514 64.792 62.6068 64.7692 62.6719 64.7692H63.1312C63.1963 64.7692 63.2485 64.792 63.2875 64.8376C63.3331 64.8766 63.3559 64.9288 63.3559 64.9939V65.4238C63.5253 65.2024 63.737 65.0232 63.9911 64.8864C64.2516 64.7431 64.5839 64.6714 64.9878 64.6714C65.4112 64.6714 65.7695 64.7659 66.0626 64.9548C66.3623 65.1372 66.587 65.3945 66.7368 65.7268C66.8867 66.0525 66.9616 66.4336 66.9616 66.87V69.6255C66.9616 69.6907 66.942 69.7461 66.903 69.7917C66.8639 69.8307 66.8118 69.8503 66.7466 69.8503H66.258C66.1929 69.8503 66.1375 69.8307 66.0919 69.7917C66.0528 69.7461 66.0333 69.6907 66.0333 69.6255V66.9189C66.0333 66.4629 65.9226 66.1078 65.7011 65.8538C65.4796 65.5932 65.1539 65.4629 64.7239 65.4629C64.3201 65.4629 63.9943 65.5932 63.7468 65.8538C63.5058 66.1078 63.3853 66.4629 63.3853 66.9189V69.6255C63.3853 69.6907 63.3625 69.7461 63.3169 69.7917C63.2778 69.8307 63.2257 69.8503 63.1605 69.8503H62.6719Z" fill="#0091DB"/>
<path d="M70.4543 72C70.0114 72 69.6466 71.9414 69.3599 71.8241C69.0798 71.7069 68.8583 71.5635 68.6955 71.3942C68.5391 71.2313 68.4251 71.0652 68.3535 70.8958C68.2883 70.733 68.2525 70.6027 68.246 70.505C68.2395 70.4398 68.259 70.3845 68.3046 70.3389C68.3567 70.2933 68.4121 70.2705 68.4707 70.2705H68.9398C68.9984 70.2705 69.0472 70.2835 69.0863 70.3095C69.1254 70.3356 69.158 70.391 69.1841 70.4757C69.2231 70.5734 69.2818 70.6809 69.3599 70.7981C69.4381 70.9219 69.5586 71.0261 69.7215 71.1108C69.8843 71.202 70.1123 71.2476 70.4055 71.2476C70.7116 71.2476 70.969 71.2053 71.1774 71.1206C71.3859 71.0424 71.5422 70.8991 71.6464 70.6906C71.7572 70.4887 71.8126 70.2086 71.8126 69.8503V69.1858C71.6562 69.3878 71.451 69.5571 71.197 69.6939C70.9429 69.8242 70.6237 69.8894 70.2394 69.8894C69.8746 69.8894 69.5619 69.8275 69.3013 69.7037C69.0407 69.5734 68.8258 69.4008 68.6564 69.1858C68.4935 68.9643 68.3698 68.7136 68.2851 68.4334C68.2069 68.1533 68.1613 67.8602 68.1483 67.554C68.1418 67.3716 68.1418 67.1925 68.1483 67.0166C68.1613 66.7104 68.2069 66.4173 68.2851 66.1372C68.3698 65.857 68.4935 65.6062 68.6564 65.3848C68.8258 65.1633 69.0407 64.9906 69.3013 64.8669C69.5619 64.7366 69.8746 64.6714 70.2394 64.6714C70.6302 64.6714 70.9527 64.7464 71.2067 64.8962C71.4673 65.0395 71.679 65.2154 71.8419 65.4238V65.0037C71.8419 64.9385 71.8614 64.8832 71.9005 64.8376C71.9461 64.792 72.0015 64.7692 72.0666 64.7692H72.5161C72.5812 64.7692 72.6366 64.792 72.6822 64.8376C72.7278 64.8832 72.7506 64.9385 72.7506 65.0037V69.7428C72.7506 70.1793 72.6757 70.5669 72.5259 70.9056C72.3826 71.2443 72.1415 71.5114 71.8028 71.7069C71.4706 71.9023 71.0211 72 70.4543 72ZM70.4348 69.1077C70.7605 69.1077 71.0211 69.0328 71.2165 68.8829C71.4184 68.7331 71.565 68.5442 71.6562 68.3162C71.7539 68.0882 71.806 67.8569 71.8126 67.6224C71.8191 67.5312 71.8223 67.4205 71.8223 67.2902C71.8223 67.1534 71.8191 67.0394 71.8126 66.9482C71.806 66.7137 71.7539 66.4824 71.6562 66.2544C71.565 66.0264 71.4184 65.8375 71.2165 65.6877C71.0211 65.5378 70.7605 65.4629 70.4348 65.4629C70.1091 65.4629 69.8485 65.5378 69.6531 65.6877C69.4576 65.831 69.3176 66.0232 69.2329 66.2642C69.1482 66.4987 69.0994 66.7528 69.0863 67.0264C69.0798 67.1957 69.0798 67.3684 69.0863 67.5442C69.0994 67.8178 69.1482 68.0752 69.2329 68.3162C69.3176 68.5507 69.4576 68.7429 69.6531 68.8927C69.8485 69.036 70.1091 69.1077 70.4348 69.1077Z" fill="#0091DB"/>
<path d="M76.2847 72C75.8418 72 75.477 71.9414 75.1903 71.8241C74.9102 71.7069 74.6887 71.5635 74.5259 71.3942C74.3695 71.2313 74.2555 71.0652 74.1839 70.8958C74.1187 70.733 74.0829 70.6027 74.0764 70.505C74.0699 70.4398 74.0894 70.3845 74.135 70.3389C74.1871 70.2933 74.2425 70.2705 74.3011 70.2705H74.7702C74.8288 70.2705 74.8776 70.2835 74.9167 70.3095C74.9558 70.3356 74.9884 70.391 75.0145 70.4757C75.0535 70.5734 75.1122 70.6809 75.1903 70.7981C75.2685 70.9219 75.389 71.0261 75.5519 71.1108C75.7147 71.202 75.9427 71.2476 76.2359 71.2476C76.542 71.2476 76.7994 71.2053 77.0078 71.1206C77.2163 71.0424 77.3726 70.8991 77.4768 70.6906C77.5876 70.4887 77.643 70.2086 77.643 69.8503V69.1858C77.4866 69.3878 77.2814 69.5571 77.0274 69.6939C76.7733 69.8242 76.4541 69.8894 76.0698 69.8894C75.705 69.8894 75.3923 69.8275 75.1317 69.7037C74.8711 69.5734 74.6562 69.4008 74.4868 69.1858C74.3239 68.9643 74.2002 68.7136 74.1155 68.4334C74.0373 68.1533 73.9917 67.8602 73.9787 67.554C73.9722 67.3716 73.9722 67.1925 73.9787 67.0166C73.9917 66.7104 74.0373 66.4173 74.1155 66.1372C74.2002 65.857 74.3239 65.6062 74.4868 65.3848C74.6562 65.1633 74.8711 64.9906 75.1317 64.8669C75.3923 64.7366 75.705 64.6714 76.0698 64.6714C76.4606 64.6714 76.7831 64.7464 77.0371 64.8962C77.2977 65.0395 77.5094 65.2154 77.6723 65.4238V65.0037C77.6723 64.9385 77.6918 64.8832 77.7309 64.8376C77.7765 64.792 77.8319 64.7692 77.897 64.7692H78.3465C78.4116 64.7692 78.467 64.792 78.5126 64.8376C78.5582 64.8832 78.581 64.9385 78.581 65.0037V69.7428C78.581 70.1793 78.5061 70.5669 78.3563 70.9056C78.213 71.2443 77.9719 71.5114 77.6332 71.7069C77.301 71.9023 76.8515 72 76.2847 72ZM76.2652 69.1077C76.5909 69.1077 76.8515 69.0328 77.0469 68.8829C77.2488 68.7331 77.3954 68.5442 77.4866 68.3162C77.5843 68.0882 77.6364 67.8569 77.643 67.6224C77.6495 67.5312 77.6527 67.4205 77.6527 67.2902C77.6527 67.1534 77.6495 67.0394 77.643 66.9482C77.6364 66.7137 77.5843 66.4824 77.4866 66.2544C77.3954 66.0264 77.2488 65.8375 77.0469 65.6877C76.8515 65.5378 76.5909 65.4629 76.2652 65.4629C75.9395 65.4629 75.6789 65.5378 75.4835 65.6877C75.288 65.831 75.148 66.0232 75.0633 66.2642C74.9786 66.4987 74.9298 66.7528 74.9167 67.0264C74.9102 67.1957 74.9102 67.3684 74.9167 67.5442C74.9298 67.8178 74.9786 68.0752 75.0633 68.3162C75.148 68.5507 75.288 68.7429 75.4835 68.8927C75.6789 69.036 75.9395 69.1077 76.2652 69.1077Z" fill="#0091DB"/>
<path d="M81.4507 69.948C81.125 69.948 80.8286 69.8829 80.5615 69.7526C80.2944 69.6223 80.0794 69.4464 79.9166 69.2249C79.7537 69.0034 79.6723 68.7526 79.6723 68.4725C79.6723 68.023 79.8547 67.6648 80.2195 67.3977C80.5843 67.1306 81.0598 66.9547 81.6461 66.87L83.102 66.6648V66.3814C83.102 66.0688 83.0108 65.8245 82.8284 65.6486C82.6525 65.4727 82.3627 65.3848 81.9588 65.3848C81.6656 65.3848 81.4279 65.4434 81.2455 65.5606C81.0696 65.6779 80.9458 65.8277 80.8742 66.0101C80.8351 66.1078 80.7667 66.1567 80.669 66.1567H80.2292C80.1576 66.1567 80.1022 66.1372 80.0631 66.0981C80.0306 66.0525 80.0143 66.0004 80.0143 65.9417C80.0143 65.844 80.0501 65.7235 80.1218 65.5802C80.1999 65.4369 80.3172 65.2968 80.4735 65.16C80.6299 65.0232 80.8286 64.9092 81.0696 64.818C81.3171 64.7203 81.6168 64.6714 81.9686 64.6714C82.3594 64.6714 82.6884 64.7236 82.9555 64.8278C83.2226 64.9255 83.431 65.059 83.5808 65.2284C83.7372 65.3978 83.8479 65.59 83.9131 65.8049C83.9847 66.0199 84.0206 66.2381 84.0206 66.4596V69.6255C84.0206 69.6907 83.9978 69.7461 83.9522 69.7917C83.9131 69.8307 83.8609 69.8503 83.7958 69.8503H83.3463C83.2747 69.8503 83.2193 69.8307 83.1802 69.7917C83.1411 69.7461 83.1216 69.6907 83.1216 69.6255V69.2054C83.0369 69.3226 82.9229 69.4399 82.7796 69.5571C82.6363 69.6679 82.4571 69.7623 82.2422 69.8405C82.0272 69.9122 81.7634 69.948 81.4507 69.948ZM81.6559 69.2151C81.923 69.2151 82.1672 69.1598 82.3887 69.049C82.6102 68.9318 82.7828 68.7526 82.9066 68.5116C83.0369 68.2706 83.102 67.9677 83.102 67.6029V67.3293L81.9686 67.4954C81.506 67.5605 81.1575 67.6713 80.923 67.8276C80.6885 67.9774 80.5713 68.1696 80.5713 68.4041C80.5713 68.5865 80.6234 68.7396 80.7276 68.8634C80.8383 68.9806 80.9751 69.0686 81.138 69.1272C81.3074 69.1858 81.48 69.2151 81.6559 69.2151Z" fill="#0091DB"/>
<path d="M85.65 69.8503C85.5849 69.8503 85.5295 69.8307 85.4839 69.7917C85.4448 69.7461 85.4253 69.6907 85.4253 69.6255V65.0037C85.4253 64.9385 85.4448 64.8832 85.4839 64.8376C85.5295 64.792 85.5849 64.7692 85.65 64.7692H86.0995C86.1646 64.7692 86.22 64.792 86.2656 64.8376C86.3112 64.8832 86.334 64.9385 86.334 65.0037V65.4336C86.4643 65.2121 86.6434 65.046 86.8714 64.9353C87.0994 64.8245 87.373 64.7692 87.6922 64.7692H88.0831C88.1482 64.7692 88.2004 64.792 88.2394 64.8376C88.2785 64.8766 88.2981 64.9288 88.2981 64.9939V65.3945C88.2981 65.4597 88.2785 65.5118 88.2394 65.5509C88.2004 65.59 88.1482 65.6095 88.0831 65.6095H87.4968C87.145 65.6095 86.8682 65.7137 86.6662 65.9222C86.4643 66.1241 86.3633 66.401 86.3633 66.7528V69.6255C86.3633 69.6907 86.3405 69.7461 86.2949 69.7917C86.2493 69.8307 86.194 69.8503 86.1288 69.8503H85.65Z" fill="#0091DB"/>
<path d="M90.4778 69.948C90.1521 69.948 89.8557 69.8829 89.5886 69.7526C89.3215 69.6223 89.1065 69.4464 88.9437 69.2249C88.7808 69.0034 88.6994 68.7526 88.6994 68.4725C88.6994 68.023 88.8818 67.6648 89.2466 67.3977C89.6114 67.1306 90.0869 66.9547 90.6732 66.87L92.1291 66.6648V66.3814C92.1291 66.0688 92.0379 65.8245 91.8555 65.6486C91.6796 65.4727 91.3898 65.3848 90.9859 65.3848C90.6927 65.3848 90.455 65.4434 90.2726 65.5606C90.0967 65.6779 89.9729 65.8277 89.9013 66.0101C89.8622 66.1078 89.7938 66.1567 89.6961 66.1567H89.2563C89.1847 66.1567 89.1293 66.1372 89.0902 66.0981C89.0577 66.0525 89.0414 66.0004 89.0414 65.9417C89.0414 65.844 89.0772 65.7235 89.1489 65.5802C89.227 65.4369 89.3443 65.2968 89.5006 65.16C89.657 65.0232 89.8557 64.9092 90.0967 64.818C90.3442 64.7203 90.6439 64.6714 90.9957 64.6714C91.3865 64.6714 91.7155 64.7236 91.9826 64.8278C92.2497 64.9255 92.4581 65.059 92.6079 65.2284C92.7643 65.3978 92.875 65.59 92.9402 65.8049C93.0118 66.0199 93.0477 66.2381 93.0477 66.4596V69.6255C93.0477 69.6907 93.0249 69.7461 92.9793 69.7917C92.9402 69.8307 92.888 69.8503 92.8229 69.8503H92.3734C92.3018 69.8503 92.2464 69.8307 92.2073 69.7917C92.1682 69.7461 92.1487 69.6907 92.1487 69.6255V69.2054C92.064 69.3226 91.95 69.4399 91.8067 69.5571C91.6634 69.6679 91.4842 69.7623 91.2693 69.8405C91.0543 69.9122 90.7905 69.948 90.4778 69.948ZM90.683 69.2151C90.9501 69.2151 91.1943 69.1598 91.4158 69.049C91.6373 68.9318 91.8099 68.7526 91.9337 68.5116C92.064 68.2706 92.1291 67.9677 92.1291 67.6029V67.3293L90.9957 67.4954C90.5331 67.5605 90.1846 67.6713 89.9501 67.8276C89.7156 67.9774 89.5983 68.1696 89.5983 68.4041C89.5983 68.5865 89.6505 68.7396 89.7547 68.8634C89.8654 68.9806 90.0022 69.0686 90.1651 69.1272C90.3345 69.1858 90.5071 69.2151 90.683 69.2151Z" fill="#0091DB"/>
<path d="M94.6771 69.8503C94.612 69.8503 94.5566 69.8307 94.511 69.7917C94.4719 69.7461 94.4524 69.6907 94.4524 69.6255V64.9939C94.4524 64.9288 94.4719 64.8766 94.511 64.8376C94.5566 64.792 94.612 64.7692 94.6771 64.7692H95.1364C95.2015 64.7692 95.2536 64.792 95.2927 64.8376C95.3383 64.8766 95.3611 64.9288 95.3611 64.9939V65.4238C95.5305 65.2024 95.7422 65.0232 95.9963 64.8864C96.2568 64.7431 96.589 64.6714 96.9929 64.6714C97.4164 64.6714 97.7747 64.7659 98.0678 64.9548C98.3674 65.1372 98.5922 65.3945 98.742 65.7268C98.8918 66.0525 98.9668 66.4336 98.9668 66.87V69.6255C98.9668 69.6907 98.9472 69.7461 98.9081 69.7917C98.869 69.8307 98.8169 69.8503 98.7518 69.8503H98.2632C98.1981 69.8503 98.1427 69.8307 98.0971 69.7917C98.058 69.7461 98.0385 69.6907 98.0385 69.6255V66.9189C98.0385 66.4629 97.9277 66.1078 97.7062 65.8538C97.4848 65.5932 97.159 65.4629 96.7291 65.4629C96.3252 65.4629 95.9995 65.5932 95.752 65.8538C95.5109 66.1078 95.3904 66.4629 95.3904 66.9189V69.6255C95.3904 69.6907 95.3676 69.7461 95.322 69.7917C95.2829 69.8307 95.2308 69.8503 95.1657 69.8503H94.6771Z" fill="#0091DB"/>
<path d="M104.855 69.948C104.405 69.948 104.011 69.8666 103.672 69.7037C103.334 69.5409 103.07 69.3161 102.881 69.0295C102.692 68.7364 102.597 68.4009 102.597 68.023C102.597 67.7234 102.659 67.4628 102.783 67.2413C102.913 67.0133 103.083 66.8114 103.291 66.6355C103.5 66.4596 103.728 66.3 103.975 66.1567C103.669 65.831 103.451 65.5444 103.321 65.2968C103.197 65.0493 103.135 64.792 103.135 64.5249C103.135 64.2317 103.21 63.9646 103.36 63.7236C103.509 63.4826 103.721 63.2872 103.995 63.1373C104.268 62.9875 104.591 62.9126 104.962 62.9126C105.32 62.9126 105.633 62.9842 105.9 63.1276C106.174 63.2709 106.385 63.463 106.535 63.7041C106.685 63.9451 106.76 64.2154 106.76 64.5151C106.76 64.8017 106.692 65.0525 106.555 65.2675C106.418 65.4825 106.236 65.6746 106.008 65.844C105.786 66.0134 105.542 66.173 105.275 66.3228L106.936 67.9546C107.04 67.7722 107.138 67.5605 107.229 67.3195C107.327 67.0785 107.402 66.7951 107.454 66.4694C107.473 66.3391 107.545 66.274 107.669 66.274H108.099C108.157 66.274 108.206 66.2935 108.245 66.3326C108.284 66.3717 108.304 66.4205 108.304 66.4792C108.297 66.6225 108.275 66.7756 108.236 66.9384C108.203 67.1013 108.151 67.2739 108.079 67.4563C108.014 67.6387 107.933 67.8211 107.835 68.0035C107.744 68.1794 107.636 68.3553 107.512 68.5312L108.509 69.5181C108.568 69.5702 108.597 69.619 108.597 69.6646C108.597 69.7233 108.581 69.7689 108.548 69.8014C108.516 69.834 108.467 69.8503 108.402 69.8503H107.854C107.789 69.8503 107.734 69.8405 107.688 69.821C107.649 69.8014 107.617 69.7786 107.591 69.7526L106.946 69.1174C106.692 69.365 106.392 69.5669 106.047 69.7233C105.701 69.8731 105.304 69.948 104.855 69.948ZM104.855 69.1663C105.115 69.1663 105.376 69.1142 105.636 69.0099C105.897 68.8992 106.138 68.7364 106.359 68.5214L104.532 66.7332C104.252 66.8896 104.008 67.0687 103.799 67.2706C103.597 67.4661 103.496 67.7104 103.496 68.0035C103.496 68.251 103.558 68.4628 103.682 68.6386C103.812 68.808 103.982 68.9383 104.19 69.0295C104.399 69.1207 104.62 69.1663 104.855 69.1663ZM104.737 65.7561C104.946 65.6388 105.138 65.5216 105.314 65.4043C105.496 65.287 105.64 65.1568 105.744 65.0134C105.855 64.8701 105.91 64.7073 105.91 64.5249C105.91 64.2643 105.819 64.0558 105.636 63.8995C105.454 63.7432 105.229 63.665 104.962 63.665C104.708 63.665 104.483 63.7432 104.288 63.8995C104.099 64.0493 104.005 64.261 104.005 64.5346C104.005 64.6454 104.024 64.7594 104.063 64.8766C104.109 64.9874 104.184 65.1112 104.288 65.248C104.392 65.3848 104.542 65.5541 104.737 65.7561Z" fill="#0091DB"/>
<path d="M114.543 69.948C113.943 69.948 113.445 69.8373 113.048 69.6158C112.657 69.3943 112.36 69.0849 112.158 68.6875C111.956 68.2901 111.846 67.8276 111.826 67.3C111.82 67.0329 111.816 66.7462 111.816 66.4401C111.816 66.1339 111.82 65.8408 111.826 65.5606C111.846 65.033 111.956 64.5705 112.158 64.1731C112.36 63.7757 112.657 63.4663 113.048 63.2448C113.445 63.0233 113.943 62.9126 114.543 62.9126C114.992 62.9126 115.386 62.9745 115.725 63.0982C116.064 63.222 116.344 63.3881 116.565 63.5966C116.793 63.805 116.966 64.0396 117.083 64.3001C117.2 64.5542 117.266 64.818 117.279 65.0916C117.285 65.1502 117.265 65.1991 117.22 65.2382C117.181 65.2773 117.132 65.2968 117.073 65.2968H116.536C116.477 65.2968 116.425 65.2805 116.38 65.248C116.34 65.2154 116.311 65.1568 116.292 65.0721C116.181 64.564 115.972 64.2154 115.666 64.0265C115.367 63.8376 114.989 63.7432 114.533 63.7432C114.012 63.7432 113.598 63.893 113.292 64.1926C112.986 64.4858 112.82 64.9581 112.793 65.6095C112.774 66.1437 112.774 66.6909 112.793 67.2511C112.82 67.9025 112.986 68.3781 113.292 68.6777C113.598 68.9709 114.012 69.1174 114.533 69.1174C114.989 69.1174 115.367 69.023 115.666 68.8341C115.972 68.6452 116.181 68.2966 116.292 67.7885C116.311 67.7038 116.34 67.6452 116.38 67.6126C116.425 67.5801 116.477 67.5638 116.536 67.5638H117.073C117.132 67.5638 117.181 67.5833 117.22 67.6224C117.265 67.6615 117.285 67.7104 117.279 67.769C117.266 68.0426 117.2 68.3097 117.083 68.5702C116.966 68.8243 116.793 69.0555 116.565 69.264C116.344 69.4725 116.064 69.6386 115.725 69.7623C115.386 69.8861 114.992 69.948 114.543 69.948Z" fill="#0091DB"/>
<path d="M119.878 69.948C119.552 69.948 119.256 69.8829 118.989 69.7526C118.722 69.6223 118.507 69.4464 118.344 69.2249C118.181 69.0034 118.099 68.7526 118.099 68.4725C118.099 68.023 118.282 67.6648 118.647 67.3977C119.011 67.1306 119.487 66.9547 120.073 66.87L121.529 66.6648V66.3814C121.529 66.0688 121.438 65.8245 121.256 65.6486C121.08 65.4727 120.79 65.3848 120.386 65.3848C120.093 65.3848 119.855 65.4434 119.673 65.5606C119.497 65.6779 119.373 65.8277 119.301 66.0101C119.262 66.1078 119.194 66.1567 119.096 66.1567H118.656C118.585 66.1567 118.529 66.1372 118.49 66.0981C118.458 66.0525 118.441 66.0004 118.441 65.9417C118.441 65.844 118.477 65.7235 118.549 65.5802C118.627 65.4369 118.744 65.2968 118.901 65.16C119.057 65.0232 119.256 64.9092 119.497 64.818C119.744 64.7203 120.044 64.6714 120.396 64.6714C120.787 64.6714 121.116 64.7236 121.383 64.8278C121.65 64.9255 121.858 65.059 122.008 65.2284C122.164 65.3978 122.275 65.59 122.34 65.8049C122.412 66.0199 122.448 66.2381 122.448 66.4596V69.6255C122.448 69.6907 122.425 69.7461 122.379 69.7917C122.34 69.8307 122.288 69.8503 122.223 69.8503H121.774C121.702 69.8503 121.646 69.8307 121.607 69.7917C121.568 69.7461 121.549 69.6907 121.549 69.6255V69.2054C121.464 69.3226 121.35 69.4399 121.207 69.5571C121.063 69.6679 120.884 69.7623 120.669 69.8405C120.454 69.9122 120.191 69.948 119.878 69.948ZM120.083 69.2151C120.35 69.2151 120.594 69.1598 120.816 69.049C121.037 68.9318 121.21 68.7526 121.334 68.5116C121.464 68.2706 121.529 67.9677 121.529 67.6029V67.3293L120.396 67.4954C119.933 67.5605 119.585 67.6713 119.35 67.8276C119.116 67.9774 118.998 68.1696 118.998 68.4041C118.998 68.5865 119.051 68.7396 119.155 68.8634C119.266 68.9806 119.402 69.0686 119.565 69.1272C119.735 69.1858 119.907 69.2151 120.083 69.2151Z" fill="#0091DB"/>
<path d="M124.087 71.7069C124.022 71.7069 123.966 71.6841 123.921 71.6385C123.882 71.5994 123.862 71.5473 123.862 71.4821V64.9939C123.862 64.9288 123.882 64.8766 123.921 64.8376C123.966 64.792 124.022 64.7692 124.087 64.7692H124.536C124.602 64.7692 124.654 64.792 124.693 64.8376C124.738 64.8766 124.761 64.9288 124.761 64.9939V65.4238C124.918 65.2089 125.126 65.0297 125.387 64.8864C125.647 64.7431 125.973 64.6714 126.364 64.6714C126.729 64.6714 127.038 64.7333 127.292 64.8571C127.553 64.9809 127.764 65.1502 127.927 65.3652C128.097 65.5802 128.224 65.8245 128.308 66.0981C128.393 66.3717 128.439 66.6648 128.445 66.9775C128.452 67.0817 128.455 67.1925 128.455 67.3097C128.455 67.427 128.452 67.5377 128.445 67.642C128.439 67.9481 128.393 68.2413 128.308 68.5214C128.224 68.795 128.097 69.0393 127.927 69.2542C127.764 69.4627 127.553 69.6321 127.292 69.7623C127.038 69.8861 126.729 69.948 126.364 69.948C125.986 69.948 125.667 69.8796 125.406 69.7428C125.152 69.5995 124.944 69.4236 124.781 69.2151V71.4821C124.781 71.5473 124.761 71.5994 124.722 71.6385C124.683 71.6841 124.628 71.7069 124.556 71.7069H124.087ZM126.159 69.1565C126.497 69.1565 126.761 69.0849 126.95 68.9416C127.145 68.7917 127.285 68.5996 127.37 68.365C127.455 68.124 127.504 67.8667 127.517 67.5931C127.523 67.4042 127.523 67.2153 127.517 67.0264C127.504 66.7528 127.455 66.4987 127.37 66.2642C127.285 66.0232 127.145 65.831 126.95 65.6877C126.761 65.5378 126.497 65.4629 126.159 65.4629C125.839 65.4629 125.579 65.5378 125.377 65.6877C125.181 65.8375 125.035 66.0297 124.937 66.2642C124.846 66.4922 124.794 66.7267 124.781 66.9677C124.774 67.072 124.771 67.1957 124.771 67.339C124.771 67.4824 124.774 67.6094 124.781 67.7201C124.787 67.9481 124.839 68.1729 124.937 68.3944C125.041 68.6158 125.194 68.7982 125.396 68.9416C125.598 69.0849 125.852 69.1565 126.159 69.1565Z" fill="#0091DB"/>
<path d="M131.09 69.948C130.764 69.948 130.468 69.8829 130.201 69.7526C129.934 69.6223 129.719 69.4464 129.556 69.2249C129.393 69.0034 129.312 68.7526 129.312 68.4725C129.312 68.023 129.494 67.6648 129.859 67.3977C130.224 67.1306 130.699 66.9547 131.286 66.87L132.742 66.6648V66.3814C132.742 66.0688 132.65 65.8245 132.468 65.6486C132.292 65.4727 132.002 65.3848 131.598 65.3848C131.305 65.3848 131.067 65.4434 130.885 65.5606C130.709 65.6779 130.585 65.8277 130.514 66.0101C130.475 66.1078 130.406 66.1567 130.308 66.1567H129.869C129.797 66.1567 129.742 66.1372 129.703 66.0981C129.67 66.0525 129.654 66.0004 129.654 65.9417C129.654 65.844 129.69 65.7235 129.761 65.5802C129.839 65.4369 129.957 65.2968 130.113 65.16C130.269 65.0232 130.468 64.9092 130.709 64.818C130.957 64.7203 131.256 64.6714 131.608 64.6714C131.999 64.6714 132.328 64.7236 132.595 64.8278C132.862 64.9255 133.071 65.059 133.22 65.2284C133.377 65.3978 133.487 65.59 133.553 65.8049C133.624 66.0199 133.66 66.2381 133.66 66.4596V69.6255C133.66 69.6907 133.637 69.7461 133.592 69.7917C133.553 69.8307 133.5 69.8503 133.435 69.8503H132.986C132.914 69.8503 132.859 69.8307 132.82 69.7917C132.781 69.7461 132.761 69.6907 132.761 69.6255V69.2054C132.676 69.3226 132.562 69.4399 132.419 69.5571C132.276 69.6679 132.097 69.7623 131.882 69.8405C131.667 69.9122 131.403 69.948 131.09 69.948ZM131.295 69.2151C131.562 69.2151 131.807 69.1598 132.028 69.049C132.25 68.9318 132.422 68.7526 132.546 68.5116C132.676 68.2706 132.742 67.9677 132.742 67.6029V67.3293L131.608 67.4954C131.146 67.5605 130.797 67.6713 130.563 67.8276C130.328 67.9774 130.211 68.1696 130.211 68.4041C130.211 68.5865 130.263 68.7396 130.367 68.8634C130.478 68.9806 130.615 69.0686 130.777 69.1272C130.947 69.1858 131.119 69.2151 131.295 69.2151Z" fill="#0091DB"/>
<path d="M135.29 69.8503C135.224 69.8503 135.169 69.8307 135.123 69.7917C135.084 69.7461 135.065 69.6907 135.065 69.6255V64.9939C135.065 64.9288 135.084 64.8766 135.123 64.8376C135.169 64.792 135.224 64.7692 135.29 64.7692H135.759C135.824 64.7692 135.876 64.792 135.915 64.8376C135.954 64.8766 135.974 64.9288 135.974 64.9939V69.6255C135.974 69.6907 135.954 69.7461 135.915 69.7917C135.876 69.8307 135.824 69.8503 135.759 69.8503H135.29ZM135.211 63.8213C135.146 63.8213 135.091 63.8018 135.045 63.7627C135.006 63.7171 134.987 63.6617 134.987 63.5966V63.0689C134.987 63.0038 135.006 62.9517 135.045 62.9126C135.091 62.867 135.146 62.8442 135.211 62.8442H135.827C135.892 62.8442 135.944 62.867 135.983 62.9126C136.029 62.9517 136.052 63.0038 136.052 63.0689V63.5966C136.052 63.6617 136.029 63.7171 135.983 63.7627C135.944 63.8018 135.892 63.8213 135.827 63.8213H135.211Z" fill="#0091DB"/>
<path d="M138.848 69.948C138.522 69.948 138.226 69.8829 137.959 69.7526C137.692 69.6223 137.477 69.4464 137.314 69.2249C137.151 69.0034 137.07 68.7526 137.07 68.4725C137.07 68.023 137.252 67.6648 137.617 67.3977C137.982 67.1306 138.457 66.9547 139.044 66.87L140.5 66.6648V66.3814C140.5 66.0688 140.408 65.8245 140.226 65.6486C140.05 65.4727 139.76 65.3848 139.356 65.3848C139.063 65.3848 138.825 65.4434 138.643 65.5606C138.467 65.6779 138.343 65.8277 138.272 66.0101C138.233 66.1078 138.164 66.1567 138.066 66.1567H137.627C137.555 66.1567 137.5 66.1372 137.461 66.0981C137.428 66.0525 137.412 66.0004 137.412 65.9417C137.412 65.844 137.448 65.7235 137.519 65.5802C137.597 65.4369 137.715 65.2968 137.871 65.16C138.027 65.0232 138.226 64.9092 138.467 64.818C138.715 64.7203 139.014 64.6714 139.366 64.6714C139.757 64.6714 140.086 64.7236 140.353 64.8278C140.62 64.9255 140.828 65.059 140.978 65.2284C141.135 65.3978 141.245 65.59 141.311 65.8049C141.382 66.0199 141.418 66.2381 141.418 66.4596V69.6255C141.418 69.6907 141.395 69.7461 141.35 69.7917C141.311 69.8307 141.258 69.8503 141.193 69.8503H140.744C140.672 69.8503 140.617 69.8307 140.578 69.7917C140.539 69.7461 140.519 69.6907 140.519 69.6255V69.2054C140.434 69.3226 140.32 69.4399 140.177 69.5571C140.034 69.6679 139.855 69.7623 139.64 69.8405C139.425 69.9122 139.161 69.948 138.848 69.948ZM139.053 69.2151C139.32 69.2151 139.565 69.1598 139.786 69.049C140.008 68.9318 140.18 68.7526 140.304 68.5116C140.434 68.2706 140.5 67.9677 140.5 67.6029V67.3293L139.366 67.4954C138.904 67.5605 138.555 67.6713 138.32 67.8276C138.086 67.9774 137.969 68.1696 137.969 68.4041C137.969 68.5865 138.021 68.7396 138.125 68.8634C138.236 68.9806 138.373 69.0686 138.535 69.1272C138.705 69.1858 138.877 69.2151 139.053 69.2151Z" fill="#0091DB"/>
<path d="M143.047 69.8503C142.982 69.8503 142.927 69.8307 142.881 69.7917C142.842 69.7461 142.823 69.6907 142.823 69.6255V64.9939C142.823 64.9288 142.842 64.8766 142.881 64.8376C142.927 64.792 142.982 64.7692 143.047 64.7692H143.507C143.572 64.7692 143.624 64.792 143.663 64.8376C143.709 64.8766 143.731 64.9288 143.731 64.9939V65.4238C143.901 65.2024 144.113 65.0232 144.367 64.8864C144.627 64.7431 144.959 64.6714 145.363 64.6714C145.787 64.6714 146.145 64.7659 146.438 64.9548C146.738 65.1372 146.963 65.3945 147.112 65.7268C147.262 66.0525 147.337 66.4336 147.337 66.87V69.6255C147.337 69.6907 147.318 69.7461 147.279 69.7917C147.239 69.8307 147.187 69.8503 147.122 69.8503H146.634C146.568 69.8503 146.513 69.8307 146.467 69.7917C146.428 69.7461 146.409 69.6907 146.409 69.6255V66.9189C146.409 66.4629 146.298 66.1078 146.077 65.8538C145.855 65.5932 145.529 65.4629 145.099 65.4629C144.696 65.4629 144.37 65.5932 144.122 65.8538C143.881 66.1078 143.761 66.4629 143.761 66.9189V69.6255C143.761 69.6907 143.738 69.7461 143.692 69.7917C143.653 69.8307 143.601 69.8503 143.536 69.8503H143.047Z" fill="#0091DB"/>
<path d="M151.495 69.8503C151.424 69.8503 151.368 69.8307 151.329 69.7917C151.29 69.7461 151.271 69.6907 151.271 69.6255V63.2448C151.271 63.1732 151.29 63.1178 151.329 63.0787C151.368 63.0331 151.424 63.0103 151.495 63.0103H151.984C152.056 63.0103 152.111 63.0331 152.15 63.0787C152.196 63.1178 152.219 63.1732 152.219 63.2448V65.6681L154.828 63.1666C154.854 63.1406 154.896 63.108 154.955 63.0689C155.02 63.0298 155.104 63.0103 155.209 63.0103H155.736C155.788 63.0103 155.834 63.0298 155.873 63.0689C155.912 63.108 155.932 63.1536 155.932 63.2057C155.932 63.2578 155.919 63.3002 155.893 63.3328L152.873 66.2837L156.088 69.5181C156.121 69.5571 156.137 69.6027 156.137 69.6549C156.137 69.707 156.117 69.7526 156.078 69.7917C156.039 69.8307 155.994 69.8503 155.941 69.8503H155.394C155.284 69.8503 155.199 69.8307 155.14 69.7917C155.082 69.7461 155.039 69.7135 155.013 69.6939L152.219 66.9384V69.6255C152.219 69.6907 152.196 69.7461 152.15 69.7917C152.111 69.8307 152.056 69.8503 151.984 69.8503H151.495Z" fill="#0091DB"/>
<path d="M157.237 69.8503C157.172 69.8503 157.117 69.8307 157.071 69.7917C157.032 69.7461 157.012 69.6907 157.012 69.6255V64.9939C157.012 64.9288 157.032 64.8766 157.071 64.8376C157.117 64.792 157.172 64.7692 157.237 64.7692H157.706C157.771 64.7692 157.823 64.792 157.862 64.8376C157.901 64.8766 157.921 64.9288 157.921 64.9939V69.6255C157.921 69.6907 157.901 69.7461 157.862 69.7917C157.823 69.8307 157.771 69.8503 157.706 69.8503H157.237ZM157.159 63.8213C157.094 63.8213 157.038 63.8018 156.993 63.7627C156.954 63.7171 156.934 63.6617 156.934 63.5966V63.0689C156.934 63.0038 156.954 62.9517 156.993 62.9126C157.038 62.867 157.094 62.8442 157.159 62.8442H157.774C157.84 62.8442 157.892 62.867 157.931 62.9126C157.976 62.9517 157.999 63.0038 157.999 63.0689V63.5966C157.999 63.6617 157.976 63.7171 157.931 63.7627C157.892 63.8018 157.84 63.8213 157.774 63.8213H157.159Z" fill="#0091DB"/>
<path d="M159.699 69.8503C159.634 69.8503 159.578 69.8307 159.533 69.7917C159.494 69.7461 159.474 69.6907 159.474 69.6255V64.9939C159.474 64.9288 159.494 64.8766 159.533 64.8376C159.578 64.792 159.634 64.7692 159.699 64.7692H160.158C160.223 64.7692 160.275 64.792 160.315 64.8376C160.36 64.8766 160.383 64.9288 160.383 64.9939V65.4238C160.552 65.2024 160.764 65.0232 161.018 64.8864C161.279 64.7431 161.611 64.6714 162.015 64.6714C162.438 64.6714 162.796 64.7659 163.09 64.9548C163.389 65.1372 163.614 65.3945 163.764 65.7268C163.914 66.0525 163.989 66.4336 163.989 66.87V69.6255C163.989 69.6907 163.969 69.7461 163.93 69.7917C163.891 69.8307 163.839 69.8503 163.774 69.8503H163.285C163.22 69.8503 163.165 69.8307 163.119 69.7917C163.08 69.7461 163.06 69.6907 163.06 69.6255V66.9189C163.06 66.4629 162.95 66.1078 162.728 65.8538C162.507 65.5932 162.181 65.4629 161.751 65.4629C161.347 65.4629 161.021 65.5932 160.774 65.8538C160.533 66.1078 160.412 66.4629 160.412 66.9189V69.6255C160.412 69.6907 160.389 69.7461 160.344 69.7917C160.305 69.8307 160.253 69.8503 160.188 69.8503H159.699Z" fill="#0091DB"/>
<path d="M167.423 69.948C166.752 69.948 166.218 69.7428 165.82 69.3324C165.423 68.9155 165.205 68.3488 165.166 67.6322C165.159 67.5475 165.156 67.44 165.156 67.3097C165.156 67.1729 165.159 67.0622 165.166 66.9775C165.192 66.515 165.299 66.1111 165.488 65.7658C165.677 65.4141 165.934 65.1437 166.26 64.9548C166.592 64.7659 166.98 64.6714 167.423 64.6714C167.918 64.6714 168.331 64.7757 168.664 64.9841C169.002 65.1926 169.26 65.489 169.436 65.8733C169.611 66.2577 169.699 66.7072 169.699 67.2218V67.3879C169.699 67.4596 169.677 67.5149 169.631 67.554C169.592 67.5931 169.54 67.6126 169.475 67.6126H166.094C166.094 67.6192 166.094 67.6322 166.094 67.6517C166.094 67.6713 166.094 67.6876 166.094 67.7006C166.107 67.9677 166.165 68.2185 166.27 68.453C166.374 68.681 166.524 68.8666 166.719 69.0099C166.915 69.1533 167.149 69.2249 167.423 69.2249C167.657 69.2249 167.853 69.1891 168.009 69.1174C168.165 69.0458 168.292 68.9676 168.39 68.8829C168.488 68.7917 168.553 68.7233 168.586 68.6777C168.644 68.593 168.69 68.5442 168.722 68.5312C168.755 68.5116 168.807 68.5018 168.879 68.5018H169.348C169.413 68.5018 169.465 68.5214 169.504 68.5605C169.55 68.593 169.569 68.6419 169.563 68.707C169.556 68.8048 169.504 68.9253 169.406 69.0686C169.309 69.2054 169.169 69.3422 168.986 69.479C168.804 69.6158 168.582 69.7298 168.322 69.821C168.061 69.9057 167.761 69.948 167.423 69.948ZM166.094 66.9384H168.771V66.9091C168.771 66.616 168.716 66.3554 168.605 66.1274C168.501 65.8994 168.348 65.7202 168.146 65.59C167.944 65.4532 167.703 65.3848 167.423 65.3848C167.143 65.3848 166.902 65.4532 166.7 65.59C166.504 65.7202 166.354 65.8994 166.25 66.1274C166.146 66.3554 166.094 66.616 166.094 66.9091V66.9384Z" fill="#0091DB"/>
<path d="M171.093 69.8503C171.027 69.8503 170.972 69.8307 170.926 69.7917C170.887 69.7461 170.868 69.6907 170.868 69.6255V65.0037C170.868 64.9385 170.887 64.8832 170.926 64.8376C170.972 64.792 171.027 64.7692 171.093 64.7692H171.542C171.607 64.7692 171.663 64.792 171.708 64.8376C171.754 64.8832 171.777 64.9385 171.777 65.0037V65.4336C171.907 65.2121 172.086 65.046 172.314 64.9353C172.542 64.8245 172.816 64.7692 173.135 64.7692H173.526C173.591 64.7692 173.643 64.792 173.682 64.8376C173.721 64.8766 173.741 64.9288 173.741 64.9939V65.3945C173.741 65.4597 173.721 65.5118 173.682 65.5509C173.643 65.59 173.591 65.6095 173.526 65.6095H172.939C172.588 65.6095 172.311 65.7137 172.109 65.9222C171.907 66.1241 171.806 66.401 171.806 66.7528V69.6255C171.806 69.6907 171.783 69.7461 171.737 69.7917C171.692 69.8307 171.637 69.8503 171.571 69.8503H171.093Z" fill="#0091DB"/>
<path d="M173.749 71.7069C173.684 71.7069 173.632 71.6841 173.593 71.6385C173.547 71.5994 173.524 71.5473 173.524 71.4821V71.1499C173.524 71.0847 173.547 71.0294 173.593 70.9838C173.632 70.9447 173.684 70.9251 173.749 70.9251H173.886C174.121 70.9251 174.293 70.8795 174.404 70.7883C174.515 70.7037 174.586 70.5897 174.619 70.4463C174.658 70.303 174.678 70.1402 174.678 69.9578V64.9939C174.678 64.9288 174.697 64.8766 174.736 64.8376C174.782 64.792 174.837 64.7692 174.902 64.7692H175.381C175.446 64.7692 175.498 64.792 175.537 64.8376C175.583 64.8766 175.606 64.9288 175.606 64.9939V69.9675C175.606 70.3128 175.55 70.6157 175.44 70.8763C175.335 71.1369 175.163 71.3388 174.922 71.4821C174.681 71.6319 174.352 71.7069 173.935 71.7069H173.749ZM174.824 63.8213C174.759 63.8213 174.704 63.8018 174.658 63.7627C174.619 63.7171 174.599 63.6617 174.599 63.5966V63.0689C174.599 63.0038 174.619 62.9517 174.658 62.9126C174.704 62.867 174.759 62.8442 174.824 62.8442H175.449C175.515 62.8442 175.57 62.867 175.616 62.9126C175.661 62.9517 175.684 63.0038 175.684 63.0689V63.5966C175.684 63.6617 175.661 63.7171 175.616 63.7627C175.57 63.8018 175.515 63.8213 175.449 63.8213H174.824Z" fill="#0091DB"/>
<path d="M178.478 69.948C178.152 69.948 177.856 69.8829 177.588 69.7526C177.321 69.6223 177.106 69.4464 176.944 69.2249C176.781 69.0034 176.699 68.7526 176.699 68.4725C176.699 68.023 176.882 67.6648 177.246 67.3977C177.611 67.1306 178.087 66.9547 178.673 66.87L180.129 66.6648V66.3814C180.129 66.0688 180.038 65.8245 179.855 65.6486C179.68 65.4727 179.39 65.3848 178.986 65.3848C178.693 65.3848 178.455 65.4434 178.272 65.5606C178.097 65.6779 177.973 65.8277 177.901 66.0101C177.862 66.1078 177.794 66.1567 177.696 66.1567H177.256C177.185 66.1567 177.129 66.1372 177.09 66.0981C177.058 66.0525 177.041 66.0004 177.041 65.9417C177.041 65.844 177.077 65.7235 177.149 65.5802C177.227 65.4369 177.344 65.2968 177.501 65.16C177.657 65.0232 177.856 64.9092 178.097 64.818C178.344 64.7203 178.644 64.6714 178.996 64.6714C179.386 64.6714 179.715 64.7236 179.982 64.8278C180.25 64.9255 180.458 65.059 180.608 65.2284C180.764 65.3978 180.875 65.59 180.94 65.8049C181.012 66.0199 181.048 66.2381 181.048 66.4596V69.6255C181.048 69.6907 181.025 69.7461 180.979 69.7917C180.94 69.8307 180.888 69.8503 180.823 69.8503H180.373C180.302 69.8503 180.246 69.8307 180.207 69.7917C180.168 69.7461 180.149 69.6907 180.149 69.6255V69.2054C180.064 69.3226 179.95 69.4399 179.807 69.5571C179.663 69.6679 179.484 69.7623 179.269 69.8405C179.054 69.9122 178.79 69.948 178.478 69.948ZM178.683 69.2151C178.95 69.2151 179.194 69.1598 179.416 69.049C179.637 68.9318 179.81 68.7526 179.934 68.5116C180.064 68.2706 180.129 67.9677 180.129 67.6029V67.3293L178.996 67.4954C178.533 67.5605 178.185 67.6713 177.95 67.8276C177.716 67.9774 177.598 68.1696 177.598 68.4041C177.598 68.5865 177.65 68.7396 177.755 68.8634C177.865 68.9806 178.002 69.0686 178.165 69.1272C178.334 69.1858 178.507 69.2151 178.683 69.2151Z" fill="#0091DB"/>
</svg>
