<svg width="24" height="25" viewBox="0 0 24 25" fill="none" xmlns="http://www.w3.org/2000/svg">
<path d="M22 6.30003C21.2483 6.62612 20.4534 6.84169 19.64 6.94003C20.4982 6.42735 21.1413 5.62081 21.45 4.67003C20.6436 5.15009 19.7608 5.48832 18.84 5.67003C18.2245 5.0026 17.405 4.55832 16.5098 4.40688C15.6147 4.25543 14.6945 4.40538 13.8938 4.83322C13.093 5.26105 12.4569 5.94256 12.0852 6.77086C11.7135 7.59917 11.6273 8.52742 11.84 9.41003C10.2094 9.32755 8.61444 8.90298 7.15865 8.16389C5.70287 7.4248 4.41885 6.38772 3.39 5.12003C3.02914 5.75019 2.83952 6.46385 2.84 7.19003C2.83872 7.86441 3.00422 8.52864 3.32176 9.12359C3.63929 9.71854 4.09902 10.2257 4.66 10.6C4.00798 10.5823 3.36989 10.4073 2.8 10.09V10.14C2.80489 11.0849 3.13599 11.9991 3.73731 12.728C4.33864 13.4569 5.17326 13.9557 6.1 14.14C5.74326 14.2486 5.37287 14.3058 5 14.31C4.74189 14.307 4.48442 14.2836 4.23 14.24C4.49391 15.0528 5.00462 15.7632 5.69107 16.2722C6.37753 16.7812 7.20558 17.0636 8.06 17.08C6.6172 18.2153 4.83588 18.8349 3 18.84C2.66574 18.8411 2.33174 18.8211 2 18.78C3.87443 19.9903 6.05881 20.6327 8.29 20.63C9.82969 20.646 11.3571 20.355 12.7831 19.7741C14.2091 19.1932 15.505 18.3339 16.5952 17.2465C17.6854 16.1591 18.548 14.8654 19.1326 13.4409C19.7172 12.0164 20.012 10.4898 20 8.95003C20 8.78003 20 8.60003 20 8.42003C20.7847 7.83484 21.4615 7.11745 22 6.30003Z" fill="white"/>
</svg>
